ffmpeg started on 2016-12-07 at 22:11:21
Report written to "Output/x264/results/ffmpeg/sintelslower3000k.log"
Command line:
Tools/ffmpeg/ffmpeg -benchmark -y -i Input/y4m/sintel.y4m -c:v libx264 -preset slower -b:v 3000k -an Output/x264/encoded/sintelslower3000k.mkv
ffmpeg version N-82227-gdb23fde Copyright (c) 2000-2016 the FFmpeg developers
  built with gcc 5.4.0 (Ubuntu 5.4.0-6ubuntu1~16.04.2) 20160609
  configuration: --prefix=/home/jaroslav/ffmpeg_build --pkg-config-flags=--static --extra-cflags=-I/home/jaroslav/ffmpeg_build/include --extra-ldflags=-L/home/jaroslav/ffmpeg_build/lib --bindir=/home/jaroslav/bin --enable-gpl --enable-libass --enable-libfdk-aac --enable-libfreetype --enable-libmp3lame --enable-libopus --enable-libtheora --enable-libvorbis --enable-libvpx --enable-libx264 --enable-libx265 --enable-nvenc --enable-libmfx --enable-libxvid --enable-libgsm --enable-libopencore-amrnb --enable-version3 --enable-nonfree
  libavutil      55. 35.100 / 55. 35.100
  libavcodec     57. 66.101 / 57. 66.101
  libavformat    57. 57.100 / 57. 57.100
  libavdevice    57.  2.100 / 57.  2.100
  libavfilter     6. 66.100 /  6. 66.100
  libswscale      4.  3.100 /  4.  3.100
  libswresample   2.  4.100 /  2.  4.100
  libpostproc    54.  2.100 / 54.  2.100
Input #0, yuv4mpegpipe, from 'Input/y4m/sintel.y4m':
  Duration: 00:00:20.83, start: 0.000000, bitrate: 2057307 kb/s
    Stream #0:0: Video: rawvideo (I420 / 0x30323449), yuv420p(progressive), 4096x1744, SAR 1:1 DAR 256:109, 24 fps, 24 tbr, 24 tbn, 24 tbc
[libx264 @ 0x29971c0] using SAR=1/1
[libx264 @ 0x29971c0] DPB size (8 frames, 223232 mbs) > level limit (6 frames, 184320 mbs)
[libx264 @ 0x29971c0] using cpu capabilities: MMX2 SSE2Fast SSSE3 SSE4.2 AVX FMA3 AVX2 LZCNT BMI2
[libx264 @ 0x29971c0] profile High, level 5.2
[libx264 @ 0x29971c0] 264 - core 148 - H.264/MPEG-4 AVC codec - Copyleft 2003-2016 - http://www.videolan.org/x264.html - options: cabac=1 ref=8 deblock=1:0:0 analyse=0x3:0x133 me=umh subme=9 psy=1 psy_rd=1.00:0.00 mixed_ref=1 me_range=16 chroma_me=1 trellis=2 8x8dct=1 cqm=0 deadzone=21,11 fast_pskip=1 chroma_qp_offset=-2 threads=6 lookahead_threads=1 sliced_threads=0 nr=0 decimate=1 interlaced=0 bluray_compat=0 constrained_intra=0 bframes=3 b_pyramid=2 b_adapt=2 b_bias=0 direct=3 weightb=1 open_gop=0 weightp=2 keyint=250 keyint_min=24 scenecut=40 intra_refresh=0 rc_lookahead=60 rc=abr mbtree=1 bitrate=3000 ratetol=1.0 qcomp=0.60 qpmin=0 qpmax=69 qpstep=4 ip_ratio=1.40 aq=1:1.00
Output #0, matroska, to 'Output/x264/encoded/sintelslower3000k.mkv':
  Metadata:
    encoder         : Lavf57.57.100
    Stream #0:0: Video: h264 (libx264) (H264 / 0x34363248), yuv420p, 4096x1744 [SAR 1:1 DAR 256:109], q=-1--1, 3000 kb/s, 24 fps, 1k tbn, 24 tbc
    Metadata:
      encoder         : Lavc57.66.101 libx264
    Side data:
      cpb: bitrate max/min/avg: 0/0/3000000 buffer size: 0 vbv_delay: -1
Stream mapping:
  Stream #0:0 -> #0:0 (rawvideo (native) -> h264 (libx264))
Press [q] to stop, [?] for help
frame=   10 fps=0.0 q=0.0 size=       0kB time=00:00:00.00 bitrate=N/A speed=   0x    frame=   19 fps= 18 q=0.0 size=       0kB time=00:00:00.00 bitrate=N/A speed=   0x    frame=   28 fps= 18 q=0.0 size=       0kB time=00:00:00.00 bitrate=N/A speed=   0x    frame=   37 fps= 17 q=0.0 size=       0kB time=00:00:00.00 bitrate=N/A speed=   0x    frame=   46 fps= 17 q=0.0 size=       0kB time=00:00:00.00 bitrate=N/A speed=   0x    frame=   47 fps=7.8 q=0.0 size=       0kB time=00:00:00.00 bitrate=N/A speed=   0x    frame=   48 fps=5.3 q=0.0 size=       0kB time=00:00:00.00 bitrate=N/A speed=   0x    frame=   49 fps=4.1 q=0.0 size=       0kB time=00:00:00.00 bitrate=N/A speed=   0x    frame=   58 fps=4.6 q=0.0 size=       0kB time=00:00:00.00 bitrate=N/A speed=   0x    frame=   67 fps=3.4 q=0.0 size=       0kB time=00:00:00.00 bitrate=N/A speed=   0x    frame=   71 fps=3.5 q=35.0 size=       1kB time=-00:00:00.08 bitrate=N/A speed=N/A    frame=   73 fps=3.5 q=44.0 size=       1kB time=00:00:00.00 bitrate=5888.0kbits/s speed=4.78e-05x    frame=   75 fps=3.5 q=41.0 size=       1kB time=00:00:00.08 bitrate=  70.1kbits/s speed=0.00387x    frame=   76 fps=3.4 q=52.0 size=       1kB time=00:00:00.12 bitrate=  46.7kbits/s speed=0.00566x    frame=   77 fps=3.4 q=48.0 size=       1kB time=00:00:00.16 bitrate=  35.0kbits/s speed=0.00736x    frame=   80 fps=3.3 q=52.0 size=       1kB time=00:00:00.29 bitrate=  20.1kbits/s speed=0.0122x    frame=   83 fps=3.4 q=52.0 size=       1kB time=00:00:00.41 bitrate=  14.1kbits/s speed=0.0169x    frame=   85 fps=3.3 q=52.0 size=       1kB time=00:00:00.50 bitrate=  11.8kbits/s speed=0.0196x    frame=   86 fps=3.2 q=53.0 size=       1kB time=00:00:00.54 bitrate=  10.8kbits/s speed=0.0204x    frame=   90 fps=3.3 q=53.0 size=       1kB time=00:00:00.70 bitrate=   8.3kbits/s speed=0.0261x    frame=   92 fps=3.2 q=53.0 size=       1kB time=00:00:00.79 bitrate=   7.4kbits/s speed=0.028x    frame=   94 fps=3.2 q=53.0 size=       1kB time=00:00:00.87 bitrate=   6.7kbits/s speed=0.03x    frame=   95 fps=3.2 q=53.0 size=       1kB time=00:00:00.91 bitrate=   6.4kbits/s speed=0.0307x    frame=   98 fps=3.2 q=53.0 size=       1kB time=00:00:01.04 bitrate=   5.6kbits/s speed=0.0343x    frame=  101 fps=3.2 q=52.0 size=       1kB time=00:00:01.16 bitrate=   5.0kbits/s speed=0.0371x    frame=  103 fps=3.2 q=52.0 size=       1kB time=00:00:01.25 bitrate=   4.7kbits/s speed=0.0389x    frame=  104 fps=3.2 q=52.0 size=       1kB time=00:00:01.29 bitrate=   4.6kbits/s speed=0.0395x    frame=  106 fps=3.2 q=52.0 size=       1kB time=00:00:01.37 bitrate=   4.3kbits/s speed=0.0412x    frame=  108 fps=3.2 q=52.0 size=       1kB time=00:00:01.45 bitrate=   4.0kbits/s speed=0.0426x    frame=  110 fps=3.1 q=52.0 size=       1kB time=00:00:01.54 bitrate=   3.8kbits/s speed=0.0441x    frame=  112 fps=3.2 q=52.0 size=       1kB time=00:00:01.62 bitrate=   3.6kbits/s speed=0.0458x    frame=  116 fps=3.2 q=52.0 size=       1kB time=00:00:01.79 bitrate=   3.3kbits/s speed=0.0493x    frame=  118 fps=3.2 q=51.0 size=       1kB time=00:00:01.87 bitrate=   3.1kbits/s speed=0.0504x    frame=  120 fps=3.2 q=51.0 size=       1kB time=00:00:01.95 bitrate=   3.0kbits/s speed=0.0519x    frame=  122 fps=3.2 q=51.0 size=       1kB time=00:00:02.04 bitrate=   2.9kbits/s speed=0.0534x    frame=  123 fps=3.2 q=51.0 size=       1kB time=00:00:02.08 bitrate=   2.8kbits/s speed=0.0536x    frame=  124 fps=3.1 q=51.0 size=       1kB time=00:00:02.12 bitrate=   2.8kbits/s speed=0.0537x    frame=  126 fps=3.1 q=51.0 size=       1kB time=00:00:02.20 bitrate=   2.7kbits/s speed=0.0548x    frame=  127 fps=3.1 q=51.0 size=       1kB time=00:00:02.25 bitrate=   2.6kbits/s speed=0.0551x    frame=  129 fps=3.1 q=51.0 size=       1kB time=00:00:02.33 bitrate=   2.5kbits/s speed=0.056x    frame=  130 fps=3.1 q=51.0 size=       1kB time=00:00:02.37 bitrate=   2.5kbits/s speed=0.056x    frame=  132 fps=3.1 q=51.0 size=       1kB time=00:00:02.45 bitrate=   2.4kbits/s speed=0.0571x    frame=  135 fps=3.1 q=51.0 size=       1kB time=00:00:02.58 bitrate=   2.3kbits/s speed=0.0587x    frame=  136 fps=3.1 q=51.0 size=       1kB time=00:00:02.62 bitrate=   2.2kbits/s speed=0.0589x    frame=  137 fps=3.0 q=51.0 size=       1kB time=00:00:02.66 bitrate=   2.2kbits/s speed=0.0586x    frame=  139 fps=3.0 q=51.0 size=       1kB time=00:00:02.75 bitrate=   2.1kbits/s speed=0.0595x    frame=  141 fps=3.0 q=51.0 size=       1kB time=00:00:02.83 bitrate=   2.1kbits/s speed=0.0604x    frame=  143 fps=3.0 q=51.0 size=       1kB time=00:00:02.91 bitrate=   2.0kbits/s speed=0.0605x    frame=  145 fps=3.0 q=51.0 size=       1kB time=00:00:03.00 bitrate=   2.0kbits/s speed=0.0613x    frame=  148 fps=3.0 q=51.0 size=       1kB time=00:00:03.12 bitrate=   1.9kbits/s speed=0.063x    frame=  149 fps=3.0 q=51.0 size=       1kB time=00:00:03.16 bitrate=   1.9kbits/s speed=0.063x    frame=  150 fps=2.9 q=51.0 size=       1kB time=00:00:03.20 bitrate=   1.8kbits/s speed=0.0623x    frame=  152 fps=2.9 q=51.0 size=       1kB time=00:00:03.29 bitrate=   1.8kbits/s speed=0.0632x    frame=  154 fps=2.9 q=51.0 size=       1kB time=00:00:03.37 bitrate=   1.7kbits/s speed=0.064x    frame=  155 fps=2.9 q=51.0 size=       1kB time=00:00:03.41 bitrate=   1.7kbits/s speed=0.0642x    frame=  156 fps=2.9 q=51.0 size=       1kB time=00:00:03.45 bitrate=   1.7kbits/s speed=0.0639x    frame=  157 fps=2.9 q=51.0 size=       1kB time=00:00:03.50 bitrate=   1.7kbits/s speed=0.0641x    frame=  158 fps=2.9 q=51.0 size=       1kB time=00:00:03.54 bitrate=   1.7kbits/s speed=0.0642x    frame=  160 fps=2.8 q=51.0 size=       1kB time=00:00:03.62 bitrate=   1.6kbits/s speed=0.0646x    frame=  161 fps=2.8 q=51.0 size=       1kB time=00:00:03.66 bitrate=   1.6kbits/s speed=0.0647x    frame=  163 fps=2.8 q=51.0 size=       1kB time=00:00:03.75 bitrate=   1.6kbits/s speed=0.0652x    frame=  165 fps=2.8 q=51.0 size=       1kB time=00:00:03.83 bitrate=   1.5kbits/s speed=0.066x    frame=  167 fps=2.8 q=51.0 size=       1kB time=00:00:03.91 bitrate=   1.5kbits/s speed=0.0659x    frame=  171 fps=2.8 q=51.0 size=       1kB time=00:00:04.08 bitrate=   1.4kbits/s speed=0.0676x    frame=  173 fps=2.8 q=51.0 size=       1kB time=00:00:04.16 bitrate=   1.4kbits/s speed=0.0675x    frame=  178 fps=2.8 q=51.0 size=       1kB time=00:00:04.37 bitrate=   1.3kbits/s speed=0.0701x    frame=  179 fps=2.8 q=51.0 size=       1kB time=00:00:04.41 bitrate=   1.3kbits/s speed=0.0698x    frame=  182 fps=2.8 q=51.0 size=       1kB time=00:00:04.54 bitrate=   1.3kbits/s speed=0.0708x    frame=  185 fps=2.8 q=51.0 size=       1kB time=00:00:04.66 bitrate=   1.3kbits/s speed=0.0718x    frame=  191 fps=2.9 q=51.0 size=    1982kB time=00:00:04.91 bitrate=3302.1kbits/s speed=0.0748x    frame=  194 fps=2.9 q=51.0 size=    1982kB time=00:00:05.04 bitrate=3220.2kbits/s speed=0.0758x    frame=  197 fps=2.9 q=51.0 size=    1982kB time=00:00:05.16 bitrate=3142.3kbits/s speed=0.0762x    frame=  198 fps=2.9 q=51.0 size=    1982kB time=00:00:05.20 bitrate=3117.6kbits/s speed=0.0762x    frame=  200 fps=2.9 q=51.0 size=    1982kB time=00:00:05.29 bitrate=3068.1kbits/s speed=0.0768x    frame=  202 fps=2.9 q=51.0 size=    1982kB time=00:00:05.37 bitrate=3020.7kbits/s speed=0.0772x    frame=  204 fps=2.9 q=51.0 size=    1982kB time=00:00:05.45 bitrate=2974.8kbits/s speed=0.0776x    frame=  205 fps=2.9 q=51.0 size=    1982kB time=00:00:05.50 bitrate=2952.1kbits/s speed=0.0776x    frame=  207 fps=2.9 q=51.0 size=    1982kB time=00:00:05.58 bitrate=2908.2kbits/s speed=0.078x    frame=  209 fps=2.9 q=51.0 size=    1982kB time=00:00:05.66 bitrate=2865.1kbits/s speed=0.0786x    frame=  212 fps=2.9 q=51.0 size=    1982kB time=00:00:05.79 bitrate=2803.3kbits/s speed=0.0794x    frame=  214 fps=2.9 q=51.0 size=    1982kB time=00:00:05.87 bitrate=2763.7kbits/s speed=0.08x    frame=  216 fps=2.9 q=51.0 size=    1982kB time=00:00:05.95 bitrate=2725.2kbits/s speed=0.0803x    frame=  219 fps=2.9 q=51.0 size=    1982kB time=00:00:06.08 bitrate=2669.2kbits/s speed=0.0813x    frame=  220 fps=2.9 q=51.0 size=    1982kB time=00:00:06.12 bitrate=2650.9kbits/s speed=0.0812x    frame=  222 fps=2.9 q=51.0 size=    1982kB time=00:00:06.20 bitrate=2615.5kbits/s speed=0.0815x    frame=  226 fps=2.9 q=51.0 size=    1982kB time=00:00:06.37 bitrate=2547.0kbits/s speed=0.0831x    frame=  228 fps=2.9 q=51.0 size=    1982kB time=00:00:06.45 bitrate=2514.3kbits/s speed=0.0822x    frame=  232 fps=2.9 q=51.0 size=    1982kB time=00:00:06.62 bitrate=2450.9kbits/s speed=0.0836x    frame=  234 fps=2.9 q=51.0 size=    1982kB time=00:00:06.70 bitrate=2420.6kbits/s speed=0.0834x    frame=  235 fps=2.9 q=51.0 size=    1982kB time=00:00:06.75 bitrate=2405.5kbits/s speed=0.0834x    frame=  238 fps=2.9 q=51.0 size=    1982kB time=00:00:06.87 bitrate=2361.8kbits/s speed=0.0839x    frame=  239 fps=2.9 q=51.0 size=    1982kB time=00:00:06.91 bitrate=2347.4kbits/s speed=0.0839x    frame=  240 fps=2.9 q=51.0 size=    1982kB time=00:00:06.95 bitrate=2333.6kbits/s speed=0.0838x    frame=  241 fps=2.9 q=51.0 size=    1982kB time=00:00:07.00 bitrate=2319.6kbits/s speed=0.0837x    frame=  242 fps=2.9 q=51.0 size=    1982kB time=00:00:07.04 bitrate=2305.8kbits/s speed=0.0836x    frame=  245 fps=2.9 q=51.0 size=    1982kB time=00:00:07.16 bitrate=2265.6kbits/s speed=0.0842x    frame=  246 fps=2.9 q=51.0 size=    1982kB time=00:00:07.20 bitrate=2252.7kbits/s speed=0.0841x    frame=  248 fps=2.9 q=51.0 size=    1982kB time=00:00:07.29 bitrate=2226.7kbits/s speed=0.0842x    frame=  249 fps=2.9 q=48.0 size=    1982kB time=00:00:07.33 bitrate=2214.3kbits/s speed=0.0842x    frame=  251 fps=2.9 q=51.0 size=    1982kB time=00:00:07.41 bitrate=2189.2kbits/s speed=0.0847x    frame=  254 fps=2.9 q=51.0 size=    2986kB time=00:00:07.54 bitrate=3242.6kbits/s speed=0.0856x    frame=  260 fps=2.9 q=50.0 size=    2986kB time=00:00:07.79 bitrate=3138.6kbits/s speed=0.0878x    frame=  262 fps=2.9 q=50.0 size=    2986kB time=00:00:07.87 bitrate=3105.5kbits/s speed=0.0881x    frame=  266 fps=2.9 q=50.0 size=    2986kB time=00:00:08.04 bitrate=3041.0kbits/s speed=0.089x    frame=  268 fps=2.9 q=50.0 size=    2986kB time=00:00:08.12 bitrate=3010.0kbits/s speed=0.089x    frame=  269 fps=2.9 q=50.0 size=    2986kB time=00:00:08.16 bitrate=2994.5kbits/s speed=0.0889x    frame=  271 fps=2.9 q=50.0 size=    2986kB time=00:00:08.25 bitrate=2964.4kbits/s speed=0.0893x    frame=  273 fps=2.9 q=50.0 size=    2986kB time=00:00:08.33 bitrate=2934.9kbits/s speed=0.0893x    frame=  275 fps=2.9 q=50.0 size=    2986kB time=00:00:08.41 bitrate=2905.6kbits/s speed=0.0894x    frame=  279 fps=2.9 q=50.0 size=    2986kB time=00:00:08.58 bitrate=2849.4kbits/s speed=0.0902x    frame=  282 fps=2.9 q=50.0 size=    2986kB time=00:00:08.70 bitrate=2808.5kbits/s speed=0.0909x    frame=  284 fps=2.9 q=50.0 size=    2986kB time=00:00:08.79 bitrate=2781.7kbits/s speed=0.091x    frame=  287 fps=3.0 q=50.0 size=    2986kB time=00:00:08.91 bitrate=2742.7kbits/s speed=0.0918x    frame=  289 fps=3.0 q=50.0 size=    2986kB time=00:00:09.00 bitrate=2717.4kbits/s speed=0.0921x    frame=  291 fps=3.0 q=50.0 size=    2986kB time=00:00:09.08 bitrate=2692.6kbits/s speed=0.0924x    frame=  294 fps=3.0 q=50.0 size=    2986kB time=00:00:09.20 bitrate=2656.0kbits/s speed=0.0931x    frame=  298 fps=3.0 q=50.0 size=    2986kB time=00:00:09.37 bitrate=2608.7kbits/s speed=0.094x    frame=  301 fps=3.0 q=50.0 size=    2986kB time=00:00:09.50 bitrate=2574.4kbits/s speed=0.0945x    frame=  302 fps=3.0 q=50.0 size=    2986kB time=00:00:09.54 bitrate=2563.0kbits/s speed=0.0944x    frame=  308 fps=3.0 q=49.0 size=    2986kB time=00:00:09.79 bitrate=2497.6kbits/s speed=0.0961x    frame=  311 fps=3.0 q=49.0 size=    2986kB time=00:00:09.91 bitrate=2466.1kbits/s speed=0.0963x    frame=  316 fps=3.1 q=49.0 size=    2986kB time=00:00:10.12 bitrate=2415.5kbits/s speed=0.0978x    frame=  319 fps=3.1 q=49.0 size=    2986kB time=00:00:10.25 bitrate=2386.0kbits/s speed=0.0983x    frame=  320 fps=3.0 q=49.0 size=    2986kB time=00:00:10.29 bitrate=2376.3kbits/s speed=0.0978x    frame=  324 fps=3.1 q=49.0 size=    2986kB time=00:00:10.45 bitrate=2338.6kbits/s speed=0.0989x    frame=  326 fps=3.1 q=49.0 size=    2986kB time=00:00:10.54 bitrate=2319.9kbits/s speed=0.099x    frame=  332 fps=3.1 q=49.0 size=    2986kB time=00:00:10.79 bitrate=2266.2kbits/s speed= 0.1x    frame=  339 fps=3.1 q=48.0 size=    3827kB time=00:00:11.08 bitrate=2828.7kbits/s speed=0.103x    frame=  343 fps=3.2 q=48.0 size=    3827kB time=00:00:11.25 bitrate=2786.7kbits/s speed=0.104x    frame=  347 fps=3.2 q=48.0 size=    3827kB time=00:00:11.41 bitrate=2745.9kbits/s speed=0.105x    frame=  348 fps=3.2 q=48.0 size=    3827kB time=00:00:11.45 bitrate=2736.1kbits/s speed=0.105x    frame=  352 fps=3.2 q=48.0 size=    3827kB time=00:00:11.62 bitrate=2696.8kbits/s speed=0.105x    frame=  355 fps=3.2 q=48.0 size=    3827kB time=00:00:11.75 bitrate=2668.1kbits/s speed=0.106x    frame=  359 fps=3.2 q=48.0 size=    3827kB time=00:00:11.91 bitrate=2630.7kbits/s speed=0.107x    frame=  363 fps=3.2 q=47.0 size=    3827kB time=00:00:12.08 bitrate=2594.6kbits/s speed=0.108x    frame=  367 fps=3.2 q=47.0 size=    3827kB time=00:00:12.25 bitrate=2559.2kbits/s speed=0.108x    frame=  371 fps=3.3 q=47.0 size=    3827kB time=00:00:12.41 bitrate=2524.8kbits/s speed=0.109x    frame=  376 fps=3.3 q=47.0 size=    3827kB time=00:00:12.62 bitrate=2483.2kbits/s speed=0.111x    frame=  379 fps=3.3 q=46.0 size=    3827kB time=00:00:12.75 bitrate=2458.9kbits/s speed=0.111x    frame=  384 fps=3.3 q=46.0 size=    3827kB time=00:00:12.95 bitrate=2419.4kbits/s speed=0.112x    frame=  389 fps=3.3 q=46.0 size=    3827kB time=00:00:13.16 bitrate=2381.0kbits/s speed=0.113x    frame=  393 fps=3.4 q=46.0 size=    3827kB time=00:00:13.33 bitrate=2351.4kbits/s speed=0.114x    frame=  397 fps=3.4 q=46.0 size=    3827kB time=00:00:13.50 bitrate=2322.3kbits/s speed=0.115x    frame=  402 fps=3.4 q=45.0 size=    3827kB time=00:00:13.70 bitrate=2287.1kbits/s speed=0.116x    frame=  404 fps=3.4 q=45.0 size=    3827kB time=00:00:13.79 bitrate=2273.1kbits/s speed=0.116x    frame=  408 fps=3.4 q=45.0 size=    3827kB time=00:00:13.95 bitrate=2246.1kbits/s speed=0.117x    frame=  412 fps=3.4 q=45.0 size=    3827kB time=00:00:14.12 bitrate=2219.5kbits/s speed=0.118x    frame=  418 fps=3.5 q=45.0 size=    3827kB time=00:00:14.37 bitrate=2180.9kbits/s speed=0.119x    frame=  420 fps=3.5 q=45.0 size=    3827kB time=00:00:14.45 bitrate=2168.4kbits/s speed=0.12x    frame=  424 fps=3.5 q=44.0 size=    3827kB time=00:00:14.62 bitrate=2143.7kbits/s speed=0.12x    frame=  430 fps=3.5 q=44.0 size=    3827kB time=00:00:14.87 bitrate=2107.6kbits/s speed=0.122x    frame=  432 fps=3.5 q=44.0 size=    3827kB time=00:00:14.95 bitrate=2095.9kbits/s speed=0.122x    frame=  439 fps=3.6 q=44.0 size=    4538kB time=00:00:15.25 bitrate=2437.8kbits/s speed=0.124x    frame=  441 fps=3.6 q=44.0 size=    4538kB time=00:00:15.33 bitrate=2424.6kbits/s speed=0.124x    frame=  445 fps=3.6 q=44.0 size=    4538kB time=00:00:15.50 bitrate=2398.5kbits/s speed=0.125x    frame=  447 fps=3.6 q=44.0 size=    4538kB time=00:00:15.58 bitrate=2385.7kbits/s speed=0.125x    frame=  450 fps=3.6 q=44.0 size=    4538kB time=00:00:15.70 bitrate=2366.7kbits/s speed=0.125x    frame=  456 fps=3.6 q=43.0 size=    4538kB time=00:00:15.95 bitrate=2329.6kbits/s speed=0.126x    frame=  458 fps=3.6 q=43.0 size=    4538kB time=00:00:16.04 bitrate=2317.4kbits/s speed=0.126x    frame=  464 fps=3.6 q=43.0 size=    4538kB time=00:00:16.29 bitrate=2281.9kbits/s speed=0.126x    frame=  468 fps=3.6 q=43.0 size=    4538kB time=00:00:16.45 bitrate=2258.9kbits/s speed=0.127x    frame=  471 fps=3.6 q=43.0 size=    4538kB time=00:00:16.58 bitrate=2241.8kbits/s speed=0.126x    frame=  477 fps=3.6 q=43.0 size=    4538kB time=00:00:16.83 bitrate=2208.6kbits/s speed=0.127x    frame=  481 fps=3.6 q=43.0 size=    4538kB time=00:00:17.00 bitrate=2186.9kbits/s speed=0.127x    frame=  485 fps=3.6 q=43.0 size=    4538kB time=00:00:17.16 bitrate=2165.6kbits/s speed=0.128x    frame=  491 fps=3.6 q=43.0 size=    5221kB time=00:00:17.41 bitrate=2455.6kbits/s speed=0.129x    frame=  494 fps=3.7 q=43.0 size=    5221kB time=00:00:17.54 bitrate=2438.1kbits/s speed=0.13x    frame=  498 fps=3.7 q=43.0 size=    5221kB time=00:00:17.70 bitrate=2415.2kbits/s speed=0.13x    frame=  500 fps=3.4 q=-1.0 Lsize=    6132kB time=00:00:20.70 bitrate=2425.7kbits/s speed=0.14x    
video:6128kB audio:0kB subtitle:0kB other streams:0kB global headers:0kB muxing overhead: 0.072738%
bench: utime=506.332s
bench: maxrss=2149480kB
[libx264 @ 0x29971c0] frame I:6     Avg QP:37.22  size: 52226
[libx264 @ 0x29971c0] frame P:273   Avg QP:43.86  size: 15879
[libx264 @ 0x29971c0] frame B:221   Avg QP:43.16  size:  7355
[libx264 @ 0x29971c0] consecutive B-frames: 35.2% 11.6% 18.0% 35.2%
[libx264 @ 0x29971c0] mb I  I16..4: 22.1% 77.3%  0.6%
[libx264 @ 0x29971c0] mb P  I16..4:  7.4% 37.5%  0.0%  P16..4:  8.6%  0.2%  0.2%  0.0%  0.0%    skip:46.0%
[libx264 @ 0x29971c0] mb B  I16..4:  0.6%  1.0%  0.0%  B16..8: 19.3%  0.5%  0.0%  direct: 0.2%  skip:78.4%  L0:39.2% L1:60.4% BI: 0.4%
[libx264 @ 0x29971c0] final ratefactor: 40.77
[libx264 @ 0x29971c0] 8x8 transform intra:82.6% inter:93.8%
[libx264 @ 0x29971c0] direct mvs  spatial:99.1% temporal:0.9%
[libx264 @ 0x29971c0] coded y,uvDC,uvAC intra: 5.7% 13.5% 0.1% inter: 0.6% 0.8% 0.0%
[libx264 @ 0x29971c0] i16 v,h,dc,p: 29% 37%  6% 28%
[libx264 @ 0x29971c0] i8 v,h,dc,ddl,ddr,vr,hd,vl,hu: 24%  7% 66%  1%  1%  0%  1%  0%  1%
[libx264 @ 0x29971c0] i4 v,h,dc,ddl,ddr,vr,hd,vl,hu: 17% 14% 12% 11% 11%  9% 11%  5% 10%
[libx264 @ 0x29971c0] i8c dc,h,v,p: 95%  3%  1%  0%
[libx264 @ 0x29971c0] Weighted P-Frames: Y:1.1% UV:0.7%
[libx264 @ 0x29971c0] ref P L0: 53.2%  5.4% 18.4%  5.9%  4.9%  4.0%  4.6%  2.5%  1.1%  0.0%
[libx264 @ 0x29971c0] ref B L0: 83.0%  8.3%  4.5%  1.6%  1.2%  1.0%  0.4%
[libx264 @ 0x29971c0] ref B L1: 98.0%  2.0%
[libx264 @ 0x29971c0] kb/s:2409.17
